<svg xmlns="http://www.w3.org/2000/svg" viewBox="0 0 0 0 446.6 120" width="447" height="120" role="img" aria-label="Promethyn"><polygon points="60,16 98.1,38 98.1,82 60,104 21.9,82 21.9,38" fill="none" stroke="#1C1B19" stroke-width="5" stroke-linejoin="round"/><path d="M60 34 C69 49,78 56,75 73 C73 87,67 95,60 95 C53 95,47 87,45 73 C42 56,51 49,60 34 Z" fill="#E2622E"/><path d="M60 60 C64 67,69 71,67 80 C66 88,63 92,60 93 C57 92,54 88,53 80 C51 71,56 67,60 60 Z" fill="#B23E12"/><g transform="translate(146.0,32.0)"><path d="M36.90 14.64 Q36.90 20.51 33.07 23.97 Q29.25 27.43 22.68 27.43 L10.53 27.43 L10.53 43.53 L4.93 43.53 L4.93 2.21 L22.32 2.21 Q29.28 2.21 33.09 5.46 Q36.90 8.72 36.90 14.64 Z M31.27 14.70 Q31.27 6.69 21.65 6.69 L10.53 6.69 L10.53 23.00 L21.88 23.00 Q31.27 23.00 31.27 14.70 Z M44.24 43.53 L44.24 19.19 Q44.24 15.84 44.06 11.80 L49.04 11.80 Q49.28 17.20 49.28 18.28 L49.40 18.28 Q50.66 14.20 52.30 12.71 Q53.94 11.21 56.94 11.21 Q57.99 11.21 59.08 11.50 L59.08 16.34 Q58.03 16.05 56.26 16.05 Q52.98 16.05 51.24 18.89 Q49.51 21.71 49.51 26.99 L49.51 43.53 L44.24 43.53 Z M90.96 27.63 Q90.96 35.97 87.29 40.05 Q83.62 44.13 76.65 44.13 Q69.69 44.13 66.15 39.88 Q62.60 35.64 62.60 27.63 Q62.60 11.21 76.82 11.21 Q84.09 11.21 87.53 15.22 Q90.96 19.21 90.96 27.63 Z M85.42 27.63 Q85.42 21.06 83.46 18.09 Q81.51 15.11 76.91 15.11 Q72.28 15.11 70.20 18.15 Q68.14 21.19 68.14 27.63 Q68.14 33.91 70.17 37.07 Q72.22 40.22 76.58 40.22 Q81.34 40.22 83.38 37.17 Q85.42 34.12 85.42 27.63 Z M116.01 43.53 L116.01 23.41 Q116.01 18.81 114.74 17.06 Q113.49 15.29 110.20 15.29 Q106.83 15.29 104.86 17.87 Q102.90 20.45 102.90 25.15 L102.90 43.53 L97.65 43.53 L97.65 18.58 Q97.65 13.03 97.47 11.80 L102.46 11.80 Q102.49 11.94 102.51 12.59 Q102.55 13.23 102.59 14.07 Q102.64 14.91 102.69 17.22 L102.79 17.22 Q104.48 13.85 106.68 12.53 Q108.89 11.21 112.05 11.21 Q115.66 11.21 117.76 12.64 Q119.85 14.08 120.68 17.22 L120.76 17.22 Q122.40 14.02 124.73 12.62 Q127.07 11.21 130.38 11.21 Q135.20 11.21 137.38 13.82 Q139.56 16.43 139.56 22.39 L139.56 43.53 L134.34 43.53 L134.34 23.41 Q134.34 18.81 133.08 17.06 Q131.82 15.29 128.53 15.29 Q125.08 15.29 123.15 17.85 Q121.23 20.42 121.23 25.15 L121.23 43.53 L116.01 43.53 Z M151.63 28.78 Q151.63 34.23 153.88 37.20 Q156.14 40.16 160.48 40.16 Q163.91 40.16 165.98 38.79 Q168.05 37.41 168.78 35.29 L173.41 36.61 Q170.57 44.13 160.48 44.13 Q153.44 44.13 149.76 39.93 Q146.08 35.73 146.08 27.46 Q146.08 19.60 149.76 15.40 Q153.44 11.21 160.27 11.21 Q174.27 11.21 174.27 28.08 L174.27 28.78 L151.63 28.78 Z M168.81 24.73 Q168.37 19.71 166.26 17.41 Q164.15 15.11 160.19 15.11 Q156.35 15.11 154.10 17.68 Q151.86 20.25 151.68 24.73 L168.81 24.73 Z M193.18 43.30 Q190.57 44.00 187.85 44.00 Q181.52 44.00 181.52 36.81 L181.52 15.64 L177.85 15.64 L177.85 11.80 L181.71 11.80 L183.27 4.69 L186.79 4.69 L186.79 11.80 L192.66 11.80 L192.66 15.64 L186.79 15.64 L186.79 35.67 Q186.79 37.96 187.53 38.89 Q188.28 39.81 190.13 39.81 Q191.19 39.81 193.18 39.40 L193.18 43.30 Z M202.93 17.22 Q204.63 14.12 207.01 12.66 Q209.41 11.21 213.08 11.21 Q218.24 11.21 220.69 13.78 Q223.14 16.34 223.14 22.39 L223.14 43.53 L217.82 43.53 L217.82 23.41 Q217.82 20.07 217.21 18.44 Q216.60 16.81 215.19 16.05 Q213.78 15.29 211.28 15.29 Q207.56 15.29 205.31 17.87 Q203.07 20.45 203.07 24.82 L203.07 43.53 L197.79 43.53 L197.79 0.00 L203.07 0.00 L203.07 11.33 Q203.07 13.11 202.97 15.03 Q202.86 16.93 202.83 17.22 L202.93 17.22 Z M232.64 56.00 Q230.47 56.00 229.00 55.68 L229.00 51.72 Q230.12 51.90 231.47 51.90 Q236.39 51.90 239.27 44.65 L239.76 43.38 L227.19 11.80 L232.82 11.80 L239.50 29.33 Q239.65 29.75 239.86 30.32 Q240.07 30.89 241.17 34.15 Q242.29 37.41 242.37 37.78 L244.43 32.01 L251.39 11.80 L256.96 11.80 L244.76 43.53 Q242.79 48.61 241.09 51.09 Q239.39 53.57 237.31 54.78 Q235.25 56.00 232.64 56.00 Z M281.27 43.53 L281.27 23.41 Q281.27 20.27 280.65 18.55 Q280.04 16.81 278.69 16.05 Q277.34 15.29 274.73 15.29 Q270.92 15.29 268.71 17.90 Q266.52 20.51 266.52 25.15 L266.52 43.53 L261.24 43.53 L261.24 18.58 Q261.24 13.03 261.06 11.80 L266.05 11.80 Q266.08 11.94 266.10 12.59 Q266.14 13.23 266.18 14.07 Q266.23 14.91 266.28 17.22 L266.38 17.22 Q268.19 13.94 270.58 12.58 Q272.97 11.21 276.52 11.21 Q281.74 11.21 284.16 13.81 Q286.58 16.40 286.58 22.39 L286.58 43.53 L281.27 43.53 Z" fill="#1C1B19"/></g></svg>